<svg xmlns="http://www.w3.org/2000/svg" width="1100" height="420" viewBox="0 0 1100 420">
<defs>
  <linearGradient id="g" x1="0" y1="0" x2="1" y2="1">
    <stop offset="0" stop-color="#070b16"/>
    <stop offset="0.65" stop-color="#0c1427"/>
    <stop offset="1" stop-color="#111b33"/>
  </linearGradient>
  <linearGradient id="line" x1="0" y1="0" x2="1" y2="0">
    <stop offset="0" stop-color="#247bff"/>
    <stop offset="1" stop-color="#ff354f"/>
  </linearGradient>
</defs>
<rect width="1100" height="420" rx="28" fill="url(#g)"/>
<rect x="1" y="1" width="1098" height="418" rx="28" fill="none" stroke="url(#line)" stroke-width="2"/>

<text x="55" y="70" fill="#247bff" font-family="Arial,Helvetica,sans-serif" font-size="20" font-weight="700">02 / TECH STACK</text>
<text x="55" y="125" fill="#f5f7fb" font-family="Arial,Helvetica,sans-serif" font-size="34" font-weight="800">TOOLS I USE</text>


<g font-family="Arial,Helvetica,sans-serif" font-size="18" font-weight="700">
<rect x="55" y="165" width="155" height="55" rx="16" fill="#111d35" stroke="#247bff"/><text x="132" y="199" text-anchor="middle" fill="#f5f7fb">C</text>
<rect x="230" y="165" width="155" height="55" rx="16" fill="#111d35" stroke="#247bff"/><text x="307" y="199" text-anchor="middle" fill="#f5f7fb">C++</text>
<rect x="405" y="165" width="155" height="55" rx="16" fill="#111d35" stroke="#ff354f"/><text x="482" y="199" text-anchor="middle" fill="#f5f7fb">Python</text>
<rect x="580" y="165" width="155" height="55" rx="16" fill="#111d35" stroke="#247bff"/><text x="657" y="199" text-anchor="middle" fill="#f5f7fb">HTML</text>
<rect x="755" y="165" width="155" height="55" rx="16" fill="#111d35" stroke="#ff354f"/><text x="832" y="199" text-anchor="middle" fill="#f5f7fb">CSS</text>
</g>
<text x="55" y="285" fill="#94a3b8" font-family="Arial,Helvetica,sans-serif" font-size="17">Current focus: stronger fundamentals • cleaner code • better projects</text>
<circle cx="65" cy="335" r="6" fill="#247bff"/><text x="82" y="341" fill="#cbd5e1" font-family="Arial" font-size="16">Programming</text>
<circle cx="245" cy="335" r="6" fill="#ff354f"/><text x="262" y="341" fill="#cbd5e1" font-family="Arial" font-size="16">Web Development</text>
</svg>